<?xml version="1.0" encoding="UTF-8"?>
<svg id="Layer_2" data-name="Layer 2" xmlns="http://www.w3.org/2000/svg" viewBox="0 0 327.57 46.16">
  <defs>
    <style>
      .cls-1 {
        fill: #379dd5;
      }

      .cls-2 {
        fill: #14263b;
      }
    </style>
  </defs>
  <g id="Layer_1-2" data-name="Layer 1">
    <g>
      <path class="cls-1" d="M73.13,45.03l-19.73.46-47.6.19c-2,0-3.93,1.15-5.8-.09l19.69-1.71,15.35-.88,9.58-.53,12.28-.35,14.9-.43,20.82-.48,19.45-.46,19-.44,25.83-.45,28.3-.51,71.89-.12c-3.14,1.55-6.39.87-9.64,1.04l-11.56.61-15.28.44-14.82.47-18.99.48-12.98.46-16.47.32-18.98.45-17.63.44-25.18.44c-2.99.05-5.82.24-8.8.31l-13.64.35Z"/>
      <g>
        <path class="cls-2" d="M21.35,4.89h14.09s7.99,10.11,7.99,10.11c.8,1.01,1.1,1.68,2.14,2.56,2.48,2.12,3.47,5.55,5.85,6.85l2.95-10.58,1.52-6.3L58.16.13l8.84-.03-9.13,33.96h-12.29S28.97,13.5,28.97,13.5l-5.66,20.55h-9.84s7.88-29.17,7.88-29.17Z"/>
        <path class="cls-2" d="M103.47,8.36l11.5-.05,6.16,7.74,11.2-7.51c3.28-.79,7-.04,10.67-.16-5.69,4.24-11.3,8.06-17.37,12.02l10.81,13.61-11.75.1-3.72-5.19c-.58-.82-2.11-1.19-2.4-2.72l-11.44,7.89-45.72-.04,6.95-25.77h33.24s-1.53,6.24-1.53,6.24l-24.15-.13-1.24,4.4,19.95-.07-1.36,4.99-19.82-.16c-.56,1.41-.9,2.5-1.1,4.44l24.59.08-1.42,5.09,18.16-12.11-10.21-12.7Z"/>
        <path class="cls-2" d="M175.54,26.88c-.95,3.7-3.87,7.04-7.89,7.04l-24.14.04c-2.07,0-3.73-1.08-4.72-2.19-1.32-1.5-1.42-3.45-.91-5.36l3.21-12.13c.81-3.07,4.46-5.78,7.85-5.8l24.41-.13c1.29,0,3.25,1.04,4.02,1.91,1.31,1.5,1.43,3.92.96,5.76l-2.78,10.85ZM149.53,28.12l15.58-.06,3.7-13.17-16.26-.16c-1.12-.01-1.84.66-2.09,1.65l-2.57,9.91c-.12.47.04,1.1.22,1.35.17.23.66.52,1.43.48Z"/>
        <polygon class="cls-2" points="196.8 33.95 187.25 34.02 192.41 14.76 180.65 14.75 182.4 8.33 215.16 8.28 213.52 14.77 201.76 14.78 196.8 33.95"/>
        <path class="cls-2" d="M275.13,21.27c5.42,4.54,10.82,8.52,16.57,12.71l-14.16.06c-1.94,0-3.19-1.74-4.54-2.77l-11.8-8.96-3.31,11.75h-9.52s6.71-25.67,6.71-25.67l9.87-.09-3.69,13.37,21.98-13.32,14.38.02-11.13,6.54c-3.6,2.27-7.01,4.21-11.36,6.37Z"/>
        <polygon class="cls-2" points="243.19 23.69 223.49 23.58 222.33 28.01 246.98 28.07 245.44 34.08 211.55 34.08 218.27 8.3 251.91 8.29 250.04 14.57 225.94 14.38 224.72 18.83 244.25 18.72 243.19 23.69"/>
      </g>
      <g>
        <path class="cls-1" d="M199.94,4.38l-130.24.31c.16-1.68.32-3.02.83-4.22l158.92.02c.01.19-.16.41-.29.44l-31.74.06c0,.18.08.33.25.41l11.4.03c-.05.31-.58.52-.49.69s.21,1.06,0,1.07l-11.13.16c-.06.1.03.35.22.35l47.96.04c.05.14-.14.47-.27.47l-45.43.18Z"/>
        <path class="cls-1" d="M199.94,4.38l45.43-.18c.13,0,.31-.33.27-.47l-47.96-.04c-.19,0-.28-.26-.22-.35l11.13-.16c.21,0,.09-.89,0-1.07s.44-.38.49-.69l-11.4-.03c-.17-.08-.26-.24-.25-.41l31.74-.06c.13-.02.31-.24.29-.44l-158.92-.02C70.88.08,71.1,0,72.07,0l255.5.02c-3.73,2.15-8.02,2.79-12.18,4.1-1.22.38-2.65.86-4,.43-1.47-.47-2.34.04-3.84.04l-107.61-.21Z"/>
      </g>
    </g>
  </g>
</svg>